<?xml version="1.0" standalone="no"?>
<!DOCTYPE svg PUBLIC "-//W3C//DTD SVG 20010904//EN"
 "http://www.w3.org/TR/2001/REC-SVG-20010904/DTD/svg10.dtd">
<svg version="1.0" xmlns="http://www.w3.org/2000/svg"
 width="225.000000pt" height="224.000000pt" viewBox="0 0 225.000000 224.000000"
 preserveAspectRatio="xMidYMid meet">

<g transform="translate(0.000000,224.000000) scale(0.100000,-0.100000)"
fill="#1B1F5F" stroke="white">
<path d="M0 1120 l0 -1120 1125 0 1125 0 0 1120 0 1120 -1125 0 -1125 0 0
-1120z m1303 920 c168 -43 305 -119 430 -239 141 -136 220 -271 269 -464 32
-123 29 -318 -6 -448 -47 -179 -108 -288 -230 -417 -123 -129 -272 -217 -446
-264 -72 -20 -108 -23 -240 -22 -139 1 -164 4 -245 28 -323 98 -553 328 -651
652 -24 79 -27 106 -28 244 -1 121 3 171 18 230 67 267 248 500 477 615 93 47
233 94 314 104 95 13 249 4 338 -19z"/>
<path d="M905 1965 c-256 -56 -470 -224 -590 -464 -115 -230 -115 -520 0 -757
108 -223 302 -387 541 -456 68 -20 101 -23 239 -23 154 0 163 2 255 33 133 46
230 104 327 196 147 139 222 281 258 491 45 263 -40 540 -226 736 -120 125
-258 202 -436 243 -87 19 -281 20 -368 1z m496 -201 c61 -33 113 -96 130 -157
6 -24 9 -71 6 -110 l-6 -69 58 -71 c81 -99 103 -147 109 -233 5 -82 -11 -143
-64 -241 -29 -54 -32 -67 -23 -90 18 -48 12 -136 -12 -188 -65 -138 -217 -196
-357 -135 l-53 23 -82 -18 c-118 -26 -212 -23 -279 7 -72 33 -117 74 -189 174
-48 67 -69 88 -107 104 -61 27 -98 63 -129 125 -52 101 -27 230 61 314 26 25
43 56 62 115 77 234 163 306 392 329 99 9 119 14 131 32 84 117 230 154 352
89z"/>
<path d="M882 1475 c-79 -24 -140 -78 -173 -150 -25 -55 -24 -62 14 -70 33 -7
89 -44 120 -80 69 -79 83 -198 35 -291 -25 -48 -88 -114 -108 -114 -32 0 35
-78 95 -111 43 -23 140 -36 198 -25 34 6 34 6 29 54 -18 190 167 335 351 274
71 -24 78 -20 97 48 20 71 12 152 -20 217 -17 33 -39 68 -50 78 -19 18 -22 17
-68 -8 -65 -35 -127 -43 -194 -23 -85 25 -132 64 -170 146 -33 69 -33 70 -73
69 -22 0 -59 -6 -83 -14z"/>
</g>
</svg>
